<svg width="24" height="24" viewBox="0 0 24 24" fill="none" xmlns="http://www.w3.org/2000/svg">
<path d="M9.30117 3.38906C9.67148 3.93281 10.0043 4.80938 10.0043 6.10313V10.3031H11.1246L13.0043 12.2203H10.0043V17.6578C10.0043 18.0844 10.1637 18.4688 10.4824 18.8156C10.8012 19.1625 11.3215 19.3359 12.0434 19.3359C12.9762 19.3359 13.9605 18.8156 15.0012 17.775C16.0652 16.7109 16.6277 15.6188 16.6793 14.4984L16.2012 14.5406C14.4949 14.5406 13.6418 13.6359 13.6418 11.8219C13.6418 11.2078 13.8434 10.6641 14.2418 10.1813C14.6402 9.70313 15.3059 9.45938 16.2387 9.45938C17.223 9.45938 18.0527 9.88594 18.7184 10.7391C19.4121 11.5922 19.759 12.6328 19.759 13.8563C19.759 15.6703 18.9855 17.4 17.4387 19.0547C15.9199 20.7047 13.0137 21.5344 12.0012 21.5344C10.3793 21.5344 9.75586 21.2156 9.22617 20.8547C8.69648 20.4891 8.00273 19.6266 8.00273 18.5391V12.2203H6.08555L4.24805 10.3031H8.00742V6.50625C8.00742 5.65781 7.15898 5.19375 6.60586 5.14688C6.26836 5.11875 5.89805 5.2125 5.7668 5.34844C5.52773 4.95 5.29805 4.46719 5.08711 3.90938C5.08711 3.90938 5.27461 3.23438 5.88867 2.83125C6.31055 2.55469 6.70898 2.47031 7.32773 2.47031C8.5043 2.46563 9.04805 3.01875 9.30117 3.38906Z" fill="#000000"/>
</svg>
